<svg version="1.0"
 width="22" height="22" viewBox="0 0 1280.000000 853.000000"
 preserveAspectRatio="xMidYMid meet">
<g transform="translate(0.000000,853.000000) scale(0.100000,-0.100000)"
fill="#000000" stroke="none">
<path d="M2650 8043 c-8 -2 -26 -10 -38 -16 -55 -27 -52 130 -52 -2464 0
-2151 2 -2401 16 -2421 32 -46 41 -47 418 -52 l360 -5 0 -55 1 -55 -390 -5
c-317 -4 -395 -8 -419 -20 -21 -11 -232 -319 -802 -1175 -426 -638 -774 -1169
-775 -1180 -1 -11 -1 -71 -1 -132 2 -98 5 -116 22 -133 20 -20 33 -20 5693
-20 4881 0 5676 2 5693 14 16 13 20 32 26 148 l6 133 -359 540 c-931 1402
-1186 1780 -1212 1799 -27 20 -45 21 -379 26 l-350 5 -1 55 -1 55 319 5 c336
5 348 7 379 52 14 20 16 271 16 2429 l0 2407 -29 30 c-17 16 -44 32 -62 36
-37 7 -8057 7 -8079 -1z m6596 -5010 l-2 -58 -2529 0 -2530 0 -2 45 c-1 25 0
51 2 58 4 9 519 12 2534 12 l2529 0 -2 -57z"/>
</g>
</svg>
